<svg width="1440" height="1024" viewBox="0 0 1440 1024" fill="none" xmlns="http://www.w3.org/2000/svg">
<g clip-path="url(#clip0_12_611)">
<rect width="1440" height="1024" fill="#242C4C"/>
<g filter="url(#filter0_f_12_611)">
<circle cx="720.5" cy="512.5" r="404.5" fill="#43528E"/>
</g>
<path d="M262.545 -222.363C307.754 -209.328 345.471 -170.303 362.149 -126.191C378.011 -84.2377 350.025 -39.8674 348.498 4.97453C347.022 48.3508 377.641 96.5335 353.345 132.449C329.008 168.426 273.492 158.983 233.299 175.269C194.92 190.819 163.998 224.773 122.621 225.937C78.015 227.191 34.0093 209.664 -0.954727 181.855C-36.9836 153.201 -60.8979 112.423 -75.2085 68.5964C-89.9428 23.4724 -95.4601 -24.7979 -83.4282 -70.7211C-71.1187 -117.704 -49.2532 -167.292 -7.12514 -191.264C33.7833 -214.543 84.3855 -187.416 131.112 -192.804C176.639 -198.054 218.502 -235.062 262.545 -222.363Z" fill="#394575"/>
<path d="M951.176 140.204C1021.77 144.354 1061 218.845 1105.31 273.966C1142.83 320.636 1185.99 368.604 1182.84 428.403C1179.78 486.313 1133.78 529.697 1089.83 567.517C1049.91 601.866 1002.44 619.427 950.531 628.285C883.216 639.77 804.54 670.27 753.496 624.903C701.914 579.06 720.41 496.662 724.949 427.797C729.075 365.212 739.123 304.011 777.899 254.716C822.398 198.146 879.332 135.98 951.176 140.204Z" fill="#394575"/>
<path d="M798.208 363.311C872.283 420.925 937.078 492.468 951.043 579.064C965.411 668.155 950.966 774.705 872.029 821.074C797.573 864.811 700.271 801.11 611.23 778.678C561.805 766.226 520.644 745.091 475.64 721.21C410.181 686.473 315.354 676.233 293.46 610.051C270.995 542.139 338.453 486.507 379.489 430.557C427.326 365.332 461.403 278.356 546.792 264.643C636.783 250.19 725.043 306.404 798.208 363.311Z" fill="#3F4D82"/>
<path d="M1386.43 794.213C1409.68 821.606 1389.57 862.315 1397.92 897.257C1406.33 932.382 1446.69 960.908 1434.43 994.88C1421.59 1030.45 1377.1 1038.97 1341.85 1052.68C1297.64 1069.86 1247.13 1110.04 1208.34 1082.77C1169.34 1055.35 1191.12 994.008 1190.59 946.336C1190.23 913.833 1193.96 884.046 1205.8 853.774C1221.63 813.297 1227.86 759.126 1269.14 745.516C1310.93 731.734 1357.95 760.661 1386.43 794.213Z" fill="#394575"/>
<path d="M887.484 1229.99C851.789 1234.08 829.134 1194.73 795.442 1182.25C761.575 1169.71 715.426 1187.4 694.004 1158.32C671.571 1127.87 689.229 1086.15 697.438 1049.23C707.731 1002.94 702.412 938.612 746.653 921.53C791.128 904.358 830.001 956.571 869.919 982.636C897.135 1000.41 919.823 1020.07 938.402 1046.74C963.245 1082.4 1004.81 1117.69 993.173 1159.57C981.392 1201.97 931.205 1224.97 887.484 1229.99Z" fill="#394575"/>
<path d="M158.48 788.487C225.097 809.062 313.797 768.68 356.543 823.824C400.501 880.532 384.516 970.019 346.257 1030.73C312.742 1083.91 236.909 1076.42 180.256 1103.55C124.647 1130.19 79.6378 1208.9 22.4696 1185.81C-35.1149 1162.55 -14.5132 1074.54 -35.9931 1016.21C-53.4046 968.923 -93.646 931.337 -89.7339 881.092C-84.6783 816.161 -73.0976 732.691 -12.1478 709.951C48.8306 687.201 96.2968 769.281 158.48 788.487Z" fill="#465590"/>
<path d="M1316.17 0.860836C1353.99 -74.2839 1451.09 -103.237 1535.23 -103.821C1620.87 -104.415 1707.17 -69.2034 1760.55 -2.22442C1810.23 60.1224 1804.03 145.468 1797.18 224.888C1790.99 296.715 1774.23 367.827 1724.17 419.701C1672.57 473.162 1601.5 507.59 1527.26 504.568C1454.68 501.614 1377.85 468.049 1343.24 404.197C1312.32 347.15 1376.95 284.013 1372.61 219.274C1367.37 141.281 1281.03 70.6821 1316.17 0.860836Z" fill="#394575"/>
</g>
<defs>
<filter id="filter0_f_12_611" x="-484" y="-692" width="2409" height="2409" filterUnits="userSpaceOnUse" color-interpolation-filters="sRGB">
<feFlood flood-opacity="0" result="BackgroundImageFix"/>
<feBlend mode="normal" in="SourceGraphic" in2="BackgroundImageFix" result="shape"/>
<feGaussianBlur stdDeviation="400" result="effect1_foregroundBlur_12_611"/>
</filter>
<clipPath id="clip0_12_611">
<rect width="1440" height="1024" fill="white"/>
</clipPath>
</defs>
</svg>
