<svg width="375" height="1024" viewBox="0 0 375 1024" fill="none" xmlns="http://www.w3.org/2000/svg">
<g clip-path="url(#clip0_12_333)">
<rect width="375" height="1024" fill="#242C4C"/>
<path d="M80.5728 -111.298C109.756 -102.888 134.103 -77.7079 144.869 -49.2452C155.108 -22.1756 137.042 6.4536 136.057 35.3871C135.104 63.3749 154.869 94.4639 139.186 117.638C123.476 140.851 87.639 134.758 61.6942 145.266C36.9201 155.3 16.9592 177.209 -9.74994 177.959C-38.5439 178.769 -66.9502 167.459 -89.52 149.517C-112.777 131.027 -128.214 104.716 -137.452 76.438C-146.963 47.3225 -150.525 16.1769 -142.758 -13.4542C-134.812 -43.7692 -120.697 -75.7646 -93.5031 -91.2326C-67.0961 -106.253 -34.4317 -88.7494 -4.26891 -92.2262C25.1195 -95.6138 52.1423 -119.492 80.5728 -111.298Z" fill="#394575"/>
<path d="M-67.25 659.173C-24.1532 672.437 33.2302 646.406 60.8837 681.953C89.3218 718.508 78.981 776.194 54.2297 815.329C32.5478 849.61 -16.511 844.78 -53.1622 862.272C-89.1376 879.442 -118.255 930.185 -155.24 915.301C-192.493 900.308 -179.165 843.574 -193.061 805.969C-204.325 775.488 -230.359 751.259 -227.828 718.869C-224.557 677.013 -217.065 623.206 -177.635 608.547C-138.186 593.882 -107.478 646.793 -67.25 659.173Z" fill="#465590"/>
<g filter="url(#filter0_f_12_333)">
<ellipse cx="117" cy="405.5" rx="261" ry="261.5" fill="#43528E"/>
</g>
<path d="M399.431 860.566C414.485 878.175 401.462 904.345 406.875 926.808C412.315 949.389 438.449 967.727 430.512 989.566C422.2 1012.44 393.387 1017.91 370.562 1026.72C341.94 1037.77 309.232 1063.6 284.111 1046.07C258.857 1028.44 272.965 989.005 272.623 958.359C272.39 937.464 274.802 918.315 282.469 898.855C292.719 872.834 296.753 838.01 323.48 829.26C350.544 820.4 380.991 838.996 399.431 860.566Z" fill="#394575"/>
<path d="M317.207 155.05C326.374 101.463 380.908 65.2132 432.79 48.9463C485.602 32.3877 545.59 37.8323 591.236 69.1321C633.726 98.2672 646.026 152.181 656.808 202.554C666.56 248.112 669.651 295.224 648.519 336.745C626.742 379.536 589.331 414.248 542.879 426.417C497.473 438.311 443.649 432.094 410.189 399.179C380.295 369.772 408.302 318.536 393.378 279.351C375.398 232.144 308.69 204.841 317.207 155.05Z" fill="#394575"/>
<path d="M272.315 333.093C304.5 334.985 322.387 368.937 342.588 394.061C359.691 415.333 379.371 437.197 377.932 464.453C376.54 490.848 355.568 510.622 335.528 527.86C317.328 543.516 295.688 551.521 272.021 555.558C241.331 560.793 205.462 574.695 182.19 554.017C158.673 533.122 167.105 495.565 169.175 464.177C171.056 435.651 175.637 407.755 193.316 385.287C213.603 359.503 239.56 331.168 272.315 333.093Z" fill="#394575"/>
<path d="M201.872 435.091C235.587 461.314 265.079 493.876 271.435 533.29C277.974 573.839 271.4 622.334 235.472 643.439C201.584 663.346 157.297 634.353 116.771 624.143C94.275 618.475 75.5408 608.856 55.0575 597.986C25.264 582.176 -17.8957 577.515 -27.8606 547.393C-38.0858 516.484 -7.38249 491.163 11.2947 465.697C33.0678 436.011 48.5774 396.424 87.4421 390.183C128.401 383.605 168.572 409.19 201.872 435.091Z" fill="#3F4D82"/>
</g>
<defs>
<filter id="filter0_f_12_333" x="-944" y="-656" width="2122" height="2123" filterUnits="userSpaceOnUse" color-interpolation-filters="sRGB">
<feFlood flood-opacity="0" result="BackgroundImageFix"/>
<feBlend mode="normal" in="SourceGraphic" in2="BackgroundImageFix" result="shape"/>
<feGaussianBlur stdDeviation="400" result="effect1_foregroundBlur_12_333"/>
</filter>
<clipPath id="clip0_12_333">
<rect width="375" height="1024" fill="white"/>
</clipPath>
</defs>
</svg>
