<svg width="231" height="78" viewBox="0 0 231 78" fill="none" xmlns="http://www.w3.org/2000/svg">
<path d="M92.6146 46.9997C91.1058 46.9997 89.7745 46.7223 88.6208 46.1677C87.4892 45.6131 86.6017 44.7699 85.9583 43.6384C85.337 42.4847 85.0264 41.0426 85.0264 39.312V29.1616H88.2214V38.9459C88.2214 40.6765 88.6319 41.9744 89.4528 42.8397C90.296 43.705 91.4719 44.1376 92.9807 44.1376C94.0901 44.1376 95.0553 43.9158 95.8762 43.472C96.6971 43.0061 97.3294 42.3405 97.7732 41.4752C98.217 40.5878 98.4389 39.5228 98.4389 38.2803V29.1616H101.634V46.8H98.6053V42.041L99.1045 43.3056C98.5276 44.4815 97.6623 45.3911 96.5085 46.0346C95.3548 46.678 94.0568 46.9997 92.6146 46.9997ZM107.716 46.8V29.1616H110.911V46.8H107.716ZM109.314 25.7671C108.693 25.7671 108.172 25.5674 107.749 25.168C107.35 24.7687 107.15 24.2806 107.15 23.7037C107.15 23.1047 107.35 22.6055 107.749 22.2061C108.172 21.8067 108.693 21.6071 109.314 21.6071C109.936 21.6071 110.445 21.8067 110.845 22.2061C111.267 22.5833 111.477 23.0602 111.477 23.6371C111.477 24.2362 111.277 24.7465 110.878 25.168C110.479 25.5674 109.957 25.7671 109.314 25.7671ZM115.315 46.8V44.7367L126.63 30.6925L127.263 31.7907H115.514V29.1616H129.826V31.2583L118.51 45.2691L117.778 44.1709H130.092V46.8H115.315ZM140.192 46.8L132.404 23.504H135.832L142.987 45.0029H141.257L148.679 23.504H151.74L158.996 45.0029H157.332L164.587 23.504H167.749L159.961 46.8H156.466L149.677 26.8653H150.576L143.753 46.8H140.192ZM181.261 28.9952C182.703 28.9952 183.967 29.2726 185.055 29.8272C186.164 30.3818 187.029 31.225 187.651 32.3565C188.272 33.488 188.583 34.9191 188.583 36.6496V46.8H185.388V37.0157C185.388 35.3073 184.966 34.0205 184.123 33.1552C183.302 32.2899 182.137 31.8573 180.629 31.8573C179.497 31.8573 178.509 32.0791 177.667 32.5229C176.823 32.9667 176.169 33.6211 175.703 34.4864C175.259 35.3517 175.038 36.4278 175.038 37.7146V46.8H171.843V22.1063H175.038V33.9207L174.405 32.656C174.981 31.5023 175.87 30.6038 177.068 29.9603C178.266 29.3169 179.664 28.9952 181.261 28.9952ZM194.496 46.8V29.1616H197.691V46.8H194.496ZM196.093 25.7671C195.471 25.7671 194.95 25.5674 194.529 25.168C194.13 24.7687 193.93 24.2806 193.93 23.7037C193.93 23.1047 194.13 22.6055 194.529 22.2061C194.95 21.8067 195.471 21.6071 196.093 21.6071C196.714 21.6071 197.225 21.8067 197.624 22.2061C198.046 22.5833 198.257 23.0602 198.257 23.6371C198.257 24.2362 198.057 24.7465 197.658 25.168C197.258 25.5674 196.736 25.7671 196.093 25.7671ZM202.093 46.8V44.7367L213.409 30.6925L214.042 31.7907H202.293V29.1616H216.604V31.2583L205.289 45.2691L204.556 44.1709H216.871V46.8H202.093Z" fill="white"/>
<path fill-rule="evenodd" clip-rule="evenodd" d="M46.0537 54.288C48.5013 54.288 50.9248 53.806 53.1861 52.8693C55.4473 51.9327 57.5019 50.56 59.2325 48.8294C60.9632 47.0988 62.3361 45.0443 63.2727 42.7832C64.2094 40.522 64.6915 38.0986 64.6915 35.6512C64.6915 33.2038 64.2094 30.7804 63.2727 28.5192C62.3361 26.258 60.9632 24.2036 59.2325 22.4729C57.5019 20.7424 55.4473 19.3696 53.1861 18.4331C50.9248 17.4964 48.5013 17.0144 46.0537 17.0144C41.1107 17.0144 36.3701 18.9779 32.8748 22.4729C29.3796 25.9681 27.416 30.7084 27.416 35.6512C27.416 40.594 29.3796 45.3343 32.8748 48.8294C36.3701 52.3245 41.1107 54.288 46.0537 54.288ZM40.9603 23.3509C42.5752 22.6826 44.3059 22.3388 46.0537 22.3392C46.4067 22.3392 46.7454 22.1989 46.9951 21.9493C47.2447 21.6996 47.385 21.3611 47.385 21.008C47.385 20.6549 47.2447 20.3163 46.9951 20.0667C46.7454 19.817 46.4067 19.6768 46.0537 19.6768C41.8168 19.6768 37.7535 21.3598 34.7575 24.3556C31.7616 27.3514 30.0785 31.4146 30.0785 35.6512C30.0785 36.0043 30.2187 36.3428 30.4685 36.5925C30.7181 36.8421 31.0567 36.9824 31.4098 36.9824C31.7628 36.9824 32.1014 36.8421 32.3512 36.5925C32.6008 36.3428 32.7411 36.0043 32.7411 35.6512C32.7408 33.0179 33.5216 30.4437 34.9847 28.2543C36.4477 26.0648 38.5272 24.3584 40.9603 23.3509Z" fill="#FE62A2"/>
<path d="M74.4538 64.0502L59.3662 48.9633" stroke="white" stroke-width="3" stroke-linecap="round"/>
<path d="M43.3913 55.6192C55.8903 55.6192 66.0228 45.4872 66.0228 32.9888C66.0228 20.4904 55.8903 10.3584 43.3913 10.3584C30.8922 10.3584 20.7598 20.4904 20.7598 32.9888C20.7598 45.4872 30.8922 55.6192 43.3913 55.6192Z" stroke="white" stroke-width="3"/>
<path d="M68.3812 49.6625C69.2576 50.2472 70.4477 50.0133 70.9792 49.1037C74.6217 42.8686 76.0541 35.5638 75.0071 28.3812C73.8684 20.5677 69.8764 13.4528 63.8011 8.40865C57.726 3.36456 49.998 0.74876 42.1078 1.06583C34.2178 1.38289 26.7246 4.61036 21.0738 10.1257C15.423 15.6409 12.0148 23.0533 11.5067 30.9331C10.9985 38.8128 13.4265 46.6014 18.3222 52.7967C23.2179 58.9921 30.2345 63.1551 38.0184 64.4828C45.1739 65.7032 52.5117 64.4483 58.8334 60.9581C59.7557 60.4488 60.0184 59.2649 59.455 58.3745C58.8916 57.4843 57.7159 57.2254 56.7894 57.7272C51.2682 60.7174 44.8857 61.7835 38.66 60.7217C31.8056 59.5525 25.627 55.8867 21.3159 50.4312C17.0049 44.9758 14.8669 38.1172 15.3143 31.1785C15.7618 24.2399 18.7629 17.7127 23.739 12.856C28.715 7.99938 35.3133 5.15734 42.2611 4.87815C49.2089 4.59895 56.0139 6.90236 61.3636 11.3441C66.7134 15.7858 70.2287 22.0511 71.2314 28.9315C72.1423 35.1808 70.9218 41.5352 67.7985 46.9821C67.2745 47.8961 67.5047 49.0778 68.3812 49.6625Z" fill="#FF8861"/>
<path d="M84.2441 58.24H220.491" stroke="white" stroke-width="2"/>
</svg>
