<svg width="768" height="1024" viewBox="0 0 768 1024" fill="none" xmlns="http://www.w3.org/2000/svg">
<g clip-path="url(#clip0_12_456)">
<rect width="768" height="1024" fill="#242C4C"/>
<path d="M116.545 -191.363C161.754 -178.328 199.471 -139.303 216.149 -95.191C232.011 -53.2377 204.025 -8.86743 202.498 35.9745C201.022 79.3508 231.641 127.533 207.345 163.449C183.008 199.426 127.492 189.983 87.2992 206.269C48.9203 221.819 17.9978 255.773 -23.3787 256.937C-67.985 258.191 -111.991 240.664 -146.955 212.855C-182.984 184.201 -206.898 143.423 -221.209 99.5964C-235.943 54.4724 -241.46 6.20207 -229.428 -39.7211C-217.119 -86.7042 -195.253 -136.292 -153.125 -160.264C-112.217 -183.543 -61.6145 -156.416 -14.8878 -161.804C30.6393 -167.054 72.5018 -204.062 116.545 -191.363Z" fill="#394575"/>
<path d="M12.4795 819.487C79.0966 840.062 167.797 799.68 210.543 854.824C254.501 911.532 238.516 1001.02 200.257 1061.73C166.742 1114.91 90.9094 1107.42 34.2559 1134.55C-21.3533 1161.19 -66.3622 1239.9 -123.53 1216.81C-181.115 1193.55 -160.513 1105.54 -181.993 1047.21C-199.405 999.923 -239.646 962.337 -235.734 912.092C-230.678 847.161 -219.098 763.691 -158.148 740.951C-97.1694 718.201 -49.7032 800.281 12.4795 819.487Z" fill="#465590"/>
<g filter="url(#filter0_f_12_456)">
<circle cx="384.5" cy="511.5" r="404.5" fill="#43528E"/>
</g>
<path d="M753.428 923.213C776.677 950.606 756.566 991.315 764.924 1026.26C773.326 1061.38 813.686 1089.91 801.428 1123.88C788.591 1159.45 744.096 1167.97 708.845 1181.68C664.643 1198.86 614.132 1239.04 575.337 1211.77C536.336 1184.35 558.123 1123.01 557.595 1075.34C557.235 1042.83 560.961 1013.05 572.8 982.774C588.631 942.297 594.859 888.126 636.136 874.516C677.931 860.734 724.951 889.661 753.428 923.213Z" fill="#394575"/>
<path d="M601.838 18.0743C616.023 -64.8476 700.41 -120.941 780.693 -146.113C862.417 -171.736 955.242 -163.311 1025.88 -114.877C1091.63 -69.7925 1110.66 13.6356 1127.34 91.5838C1142.43 162.081 1147.22 234.982 1114.52 299.234C1080.82 365.45 1022.93 419.163 951.048 437.993C880.786 456.399 797.498 446.779 745.72 395.845C699.462 350.341 742.8 271.056 719.706 210.421C691.884 137.371 588.659 95.1217 601.838 18.0743Z" fill="#394575"/>
<path d="M545.976 257.143C595.619 260.063 623.21 312.455 654.368 351.223C680.749 384.048 711.103 417.787 708.885 459.845C706.737 500.576 674.389 531.09 643.479 557.689C615.405 581.849 582.027 594.2 545.522 600.43C498.184 608.508 442.857 629.96 406.961 598.052C370.688 565.808 383.695 507.855 386.887 459.419C389.788 415.401 396.854 372.355 424.122 337.685C455.416 297.896 495.453 254.173 545.976 257.143Z" fill="#394575"/>
<path d="M438.468 414.278C490.64 454.856 536.275 505.243 546.11 566.233C556.229 628.98 546.056 704.023 490.461 736.681C438.021 767.485 369.491 722.621 306.78 706.821C271.97 698.051 242.98 683.166 211.283 666.347C165.18 641.882 98.3939 634.669 82.9741 588.057C67.1513 540.227 114.662 501.046 143.564 461.639C177.256 415.702 201.256 354.444 261.396 344.786C324.777 334.607 386.938 374.198 438.468 414.278Z" fill="#3F4D82"/>
</g>
<defs>
<filter id="filter0_f_12_456" x="-820" y="-693" width="2409" height="2409" filterUnits="userSpaceOnUse" color-interpolation-filters="sRGB">
<feFlood flood-opacity="0" result="BackgroundImageFix"/>
<feBlend mode="normal" in="SourceGraphic" in2="BackgroundImageFix" result="shape"/>
<feGaussianBlur stdDeviation="400" result="effect1_foregroundBlur_12_456"/>
</filter>
<clipPath id="clip0_12_456">
<rect width="768" height="1024" fill="white"/>
</clipPath>
</defs>
</svg>
